<svg xmlns="http://www.w3.org/2000/svg" width="21" height="50" viewBox="0 0 21 50">
  <defs>
    <style>
      .cls-1 {
        fill: #fff;
        fill-rule: evenodd;
      }
    </style>
  </defs>
  <path id="arrow" class="cls-1" d="M1575,3957.46a3.16,3.16,0,0,0,.66,1.58q6.555,9.735,13.1,19.46a0.81,0.81,0,0,1-.01,1.08q-6.585,9.72-13.13,19.45a3.166,3.166,0,0,0-.52,2.64,2.946,2.946,0,0,0,2.41,2.26,3,3,0,0,0,3.23-1.32c2.33-3.44,4.64-6.88,6.96-10.33q3.825-5.67,7.66-11.36a3.091,3.091,0,0,0,.02-3.75q-7.29-10.83-14.56-21.67A3.151,3.151,0,0,0,1575,3957.46Z" transform="translate(-1575 -3954)"/>
</svg>
