<svg xmlns="http://www.w3.org/2000/svg" width="21" height="50" viewBox="0 0 21 50">
  <defs>
    <style>
      .cls-1 {
        fill: #fff;
        fill-rule: evenodd;
      }
    </style>
  </defs>
  <path id="arrow" class="cls-1" d="M343,3957.46a3.216,3.216,0,0,1-.66,1.58q-6.549,9.735-13.1,19.46a0.807,0.807,0,0,0,.013,1.08q6.578,9.72,13.127,19.45a3.116,3.116,0,0,1,.517,2.64,2.93,2.93,0,0,1-2.407,2.26,3,3,0,0,1-3.226-1.32q-3.5-5.16-6.964-10.33-3.828-5.67-7.657-11.36a3.088,3.088,0,0,1-.018-3.75q7.281-10.83,14.561-21.67A3.149,3.149,0,0,1,343,3957.46Z" transform="translate(-322 -3954)"/>
</svg>
