<svg xmlns="http://www.w3.org/2000/svg" width="20" height="50" viewBox="0 0 20 50">
  <defs>
    <style>
      .cls-1 {
        fill: #dc664c;
        fill-rule: evenodd;
      }
    </style>
  </defs>
  <path id="arrows" class="cls-1" d="M433,3416.46a3.306,3.306,0,0,1-.629,1.58q-6.236,9.735-12.477,19.46a0.838,0.838,0,0,0,.013,1.08q6.264,9.72,12.5,19.45a3.244,3.244,0,0,1,.492,2.64,2.852,2.852,0,0,1-2.292,2.26,2.8,2.8,0,0,1-3.073-1.32q-3.329-5.16-6.632-10.33-3.647-5.67-7.293-11.36a3.213,3.213,0,0,1-.017-3.75q6.935-10.83,13.868-21.67a2.918,2.918,0,0,1,4.012-1.1A3.2,3.2,0,0,1,433,3416.46Z" transform="translate(-413 -3413)"/>
</svg>
