<svg xmlns="http://www.w3.org/2000/svg" width="20" height="50" viewBox="0 0 20 50">
  <defs>
    <style>
      .cls-1 {
        fill: #dc664c;
        fill-rule: evenodd;
      }
    </style>
  </defs>
  <path id="arrows" class="cls-1" d="M1490,3416.46a3.362,3.362,0,0,0,.63,1.58q6.24,9.735,12.48,19.46a0.833,0.833,0,0,1-.02,1.08q-6.255,9.72-12.5,19.45a3.224,3.224,0,0,0-.49,2.64,2.856,2.856,0,0,0,2.29,2.26,2.791,2.791,0,0,0,3.07-1.32q3.33-5.16,6.64-10.33,3.645-5.67,7.29-11.36a3.213,3.213,0,0,0,.02-3.75q-6.945-10.83-13.87-21.67a2.917,2.917,0,0,0-4.01-1.1A3.205,3.205,0,0,0,1490,3416.46Z" transform="translate(-1490 -3413)"/>
</svg>
