<svg xmlns="http://www.w3.org/2000/svg" width="45" height="50" viewBox="0 0 45 50">
  <defs>
    <style>
      .cls-1 {
        fill: #3b3b3b;
        fill-rule: evenodd;
      }
    </style>
  </defs>
  <path id="Фигура_25" data-name="Фигура 25" class="cls-1" d="M731.952,677.6v3.349c-0.91,0-1.807-.028-2.7.009a7.413,7.413,0,0,0-1.838.232,3.243,3.243,0,0,0-2.125,2.991q0,11.7,0,23.407a3.3,3.3,0,0,0,3.432,3.446q7.974,0,15.95,0h0.687v-1.064c0-1.407-.036-2.817.014-4.222a4.915,4.915,0,0,1,1.193-3.4,3.735,3.735,0,0,1,2.586-1.2c2.34-.1,4.685-0.09,7.028-0.124,0.258,0,.516,0,0.857,0v-0.691q0-8.081,0-16.16a3.327,3.327,0,0,0-3.243-3.22q-7.22,0-14.439,0h-0.643v-3.287h0.776q7.038,0,14.074,0a6.6,6.6,0,0,1,6.586,5.353,15.894,15.894,0,0,1,.169,2.955c0.016,4.9.007,9.8,0.009,14.7a6.77,6.77,0,0,1-1.2,3.764,24.682,24.682,0,0,1-11.212,9.306,7.723,7.723,0,0,1-3.048.573c-5.386,0-10.772,0-16.158-.007a6.536,6.536,0,0,1-6.583-5.814,41.537,41.537,0,0,1-.114-4.577q-0.014-9.749,0-19.5a6.592,6.592,0,0,1,5.3-6.579A36.139,36.139,0,0,1,731.952,677.6Zm-3,38.438c1.132,0,2.174-.009,3.215.012a0.61,0.61,0,0,1,.4.241,3.329,3.329,0,0,0,2.815,1.415q12.613,0,25.226,0a3.344,3.344,0,0,0,3.1-3.2q-0.008-7.479.009-14.959c0-2.918.012-5.837,0-8.756a3.071,3.071,0,0,0-1.286-2.447,0.9,0.9,0,0,1-.392-0.826c0.023-.948.008-1.9,0.008-2.9a6.1,6.1,0,0,1,2.772,1.5,6.5,6.5,0,0,1,2.179,4.949q0.018,11.572,0,23.144a6.675,6.675,0,0,1-6.775,6.769q-12.273.016-24.548,0a6.708,6.708,0,0,1-6.539-4.342C729.065,716.478,729.021,716.294,728.947,716.042Zm17.783-40.094c-1.046,0-2.052.009-3.058-.011a0.543,0.543,0,0,1-.4-0.241c-0.981-1.86-4.2-1.678-5.3-.733a2.851,2.851,0,0,0-1,2.213c-0.021,4.518-.014,9.036,0,13.555a2.041,2.041,0,0,0,2.127,1.933,4.838,4.838,0,0,0,1.628-.219,1.753,1.753,0,0,0,1.288-1.811c0.008-1.5,0-2.989.007-4.484a1.663,1.663,0,0,1,1.147-1.631,1.515,1.515,0,0,1,1.717.533,2.265,2.265,0,0,1,.4,1.146c0.046,1.476.06,2.955,0.012,4.431a5.3,5.3,0,0,1-4.833,5.238,6.248,6.248,0,0,1-4.294-.839,4.88,4.88,0,0,1-2.473-4.369c-0.043-4.4-.051-8.794,0-13.189a6.019,6.019,0,0,1,3.007-5.536c2.835-1.615,6.88-1.136,8.863,1.422A5.845,5.845,0,0,1,746.73,675.948Z" transform="translate(-722 -671)"/>
</svg>
