<svg xmlns="http://www.w3.org/2000/svg" width="22.875" height="26.82" viewBox="0 0 22.875 26.82">
  <defs>
    <style>
      .cls-1 {
        fill: #676767;
        fill-rule: evenodd;
      }
    </style>
  </defs>
  <path id="Фигура_8" data-name="Фигура 8" class="cls-1" d="M395.988,7275.1a5.334,5.334,0,0,1,.549.25,1.3,1.3,0,0,1,.449.48q1.373,2.4,2.752,4.8a2.412,2.412,0,0,1,.337,1.16,1.441,1.441,0,0,1-.569,1.21c-0.489.39-.982,0.77-1.474,1.15a0.514,0.514,0,0,1-.11.06,38.827,38.827,0,0,0,7.6,9.65c0.031-.02.068-0.05,0.1-0.07,0.445-.35.895-0.69,1.331-1.05a1.531,1.531,0,0,1,1.837-.14,3.376,3.376,0,0,1,.735.55c1.332,1.27,2.652,2.55,3.978,3.83a1.244,1.244,0,0,1,.405.86,0.578,0.578,0,0,0,.014.07c-0.015.13-.031,0.25-0.047,0.38a0.322,0.322,0,0,0-.029.05,1.82,1.82,0,0,1-.638.94c-0.857.67-1.715,1.34-2.573,2a2.564,2.564,0,0,1-1.226.56c-0.182.02-.369,0.03-0.554,0.04l-0.506-.06a2.031,2.031,0,0,1-.231-0.07,6.253,6.253,0,0,1-2.13-1.08,49.1,49.1,0,0,1-6.1-5.55,38.031,38.031,0,0,1-3.692-4.57,56.405,56.405,0,0,1-4.285-7.55,6.023,6.023,0,0,1-.448-1,10.569,10.569,0,0,1-.42-2.41,2.489,2.489,0,0,1,.973-2.16c0.864-.67,1.725-1.35,2.588-2.02a1.551,1.551,0,0,1,.851-0.33l0.174-.03C395.751,7275.07,395.869,7275.08,395.988,7275.1Z" transform="translate(-391.063 -7275.06)"/>
</svg>
