<svg xmlns="http://www.w3.org/2000/svg" width="25" height="25" viewBox="0 0 25 25">
  <defs>
    <style>
      .cls-1 {
        fill: #676767;
        fill-rule: evenodd;
      }
    </style>
  </defs>
  <path id="Фигура_7" data-name="Фигура 7" class="cls-1" d="M404.805,7142c0.292,0.05.587,0.08,0.875,0.14a6.565,6.565,0,0,1,5.06,5.41,7.807,7.807,0,0,1-.412,3.81,19.347,19.347,0,0,1-1.3,2.79q-1.5,2.745-3.014,5.48c-0.488.88-.988,1.76-1.482,2.64-0.025.04-.051,0.08-0.085,0.14a0.756,0.756,0,0,1-.054-0.07q-2.484-4.5-4.967-9a11.056,11.056,0,0,1-1.208-3.2,6.618,6.618,0,0,1,2.863-7.11,6.169,6.169,0,0,1,2.907-1.01,0.31,0.31,0,0,0,.093-0.02h0.722Zm2.384,6.48a2.733,2.733,0,1,0-2.717,2.79A2.763,2.763,0,0,0,407.189,7148.48ZM392,7163.26a2.691,2.691,0,0,1,1.555-1.53,12.248,12.248,0,0,1,2.878-1,25.937,25.937,0,0,1,3.032-.54c0.6-.07,1.2-0.12,1.8-0.18,0.059-.01.119,0,0.177-0.01-0.768.11-1.539,0.2-2.3,0.33a12.774,12.774,0,0,0-3.141.91,3.308,3.308,0,0,0-1.234.83,0.948,0.948,0,0,0-.255.86,1.217,1.217,0,0,0,.318.55,3.976,3.976,0,0,0,1.41.87,16.917,16.917,0,0,0,4.092.98,32.553,32.553,0,0,0,6.471.18,22.316,22.316,0,0,0,5-.82,6.423,6.423,0,0,0,2.076-.95,2.725,2.725,0,0,0,.377-0.34,0.921,0.921,0,0,0,0-1.31,2.976,2.976,0,0,0-.58-0.5,7.356,7.356,0,0,0-2.067-.86,19.594,19.594,0,0,0-3.034-.6c-0.335-.04-0.67-0.08-1-0.13,0.275,0.02.552,0.03,0.825,0.06,1.041,0.14,2.084.27,3.118,0.44a15.585,15.585,0,0,1,3.6,1.06,5.329,5.329,0,0,1,1.215.73,1.93,1.93,0,0,1,.676.97v0.34a2.011,2.011,0,0,1-.9,1.17c-0.117.08-.239,0.16-0.363,0.23a10.468,10.468,0,0,1-2.634,1.02,32.217,32.217,0,0,1-7.18.96,41.684,41.684,0,0,1-4.329-.08,31.559,31.559,0,0,1-4.74-.65,13.052,13.052,0,0,1-3.272-1.08,2.707,2.707,0,0,1-1.58-1.54v-0.37Z" transform="translate(-392 -7142)"/>
</svg>
