<svg xmlns="http://www.w3.org/2000/svg" width="24" height="25" viewBox="0 0 24 25">
  <defs>
    <style>
      .cls-1 {
        fill: #676767;
        fill-rule: evenodd;
      }
    </style>
  </defs>
  <path id="Фигура_9" data-name="Фигура 9" class="cls-1" d="M406.154,7240.19c-0.04.06-.081,0.12-0.119,0.17a5.59,5.59,0,0,1-2.659,2.27,4.356,4.356,0,0,1-3.485-.02,3.819,3.819,0,0,1-2.067-2.54,6.7,6.7,0,0,1-.225-2.44,8.449,8.449,0,0,1,1.158-3.79,7.738,7.738,0,0,1,5.305-3.78,10.256,10.256,0,0,1,5.616.49c0.434,0.15.425,0.16,0.353,0.61-0.243,1.54-.483,3.07-0.724,4.61-0.124.79-.27,1.58-0.361,2.38a6.488,6.488,0,0,0-.012,1.4,1.077,1.077,0,0,0,1.515.97,2.946,2.946,0,0,0,1.6-1.16,6.275,6.275,0,0,0,1.127-2.73,10.24,10.24,0,0,0-.293-5.25,7.24,7.24,0,0,0-5.153-4.83,9.548,9.548,0,0,0-3.794-.32,9.744,9.744,0,0,0-8.075,5.73,11.394,11.394,0,0,0-1.04,3.68,13.5,13.5,0,0,0-.026,3.17,9.1,9.1,0,0,0,2.25,5.31,7.961,7.961,0,0,0,3.756,2.28,11.2,11.2,0,0,0,4.233.34,11.443,11.443,0,0,0,3.8-1c0.026-.01.054-0.02,0.1-0.04q0.171,0.555.338,1.08c0.083,0.27.159,0.54,0.252,0.81a0.132,0.132,0,0,1-.09.2,13.422,13.422,0,0,1-3.087.97,17.1,17.1,0,0,1-3.779.25,11.007,11.007,0,0,1-5.792-1.85,10.425,10.425,0,0,1-4.425-6.41,13.276,13.276,0,0,1-.292-4.41,13.8,13.8,0,0,1,3.135-7.75,12.44,12.44,0,0,1,7.21-4.3,13.266,13.266,0,0,1,3.384-.28,11.193,11.193,0,0,1,4.964,1.31,9.554,9.554,0,0,1,5.012,6.87,11.346,11.346,0,0,1-.57,6.49,6.7,6.7,0,0,1-3.084,3.59,5.548,5.548,0,0,1-3.57.63,2.64,2.64,0,0,1-2.274-2.33c-0.019-.12-0.041-0.24-0.062-0.36C406.191,7240.2,406.172,7240.2,406.154,7240.19Zm0.275-7.32a0.252,0.252,0,0,0-.092-0.04,3.667,3.667,0,0,0-2.838.39,5.409,5.409,0,0,0-2.271,5.41,1.641,1.641,0,0,0,1.6,1.44,2.152,2.152,0,0,0,1.531-.65,5.032,5.032,0,0,0,1.511-2.83c0.152-.76.241-1.54,0.356-2.32C406.3,7233.8,406.362,7233.34,406.429,7232.87Z" transform="translate(-392 -7224)"/>
</svg>
