<svg xmlns="http://www.w3.org/2000/svg" width="63" height="65" viewBox="0 0 63 65">
  <defs>
    <style>
      .cls-1 {
        fill: #fff;
        fill-rule: evenodd;
      }
    </style>
  </defs>
  <path id="icon-3" class="cls-1" d="M963.166,6566l-0.466-.12a3.049,3.049,0,0,1-2.216-2.92c0-.33,0-0.66,0-1.02h-2.42a3.049,3.049,0,0,1-3.026-2.37c-0.57-2.26-1.136-4.53-1.711-6.79a0.336,0.336,0,0,0-.18-0.2c-0.789-.34-1.583-0.66-2.372-1a0.333,0.333,0,0,0-.334.02c-1.986,1.2-3.971,2.4-5.965,3.58a3,3,0,0,1-3.815-.44q-1.8-1.755-3.545-3.56a2.935,2.935,0,0,1-.455-3.52c0.676-1.19,1.4-2.35,2.1-3.52,0.532-.89,1.065-1.78,1.6-2.66a0.269,0.269,0,0,0,.018-0.28q-0.519-1.2-1.015-2.4a0.294,0.294,0,0,0-.232-0.19q-3.381-.84-6.76-1.7a3.019,3.019,0,0,1-2.372-3.04q0-2.385,0-4.77a3.025,3.025,0,0,1,2.4-3.08q3.378-.855,6.758-1.69a0.291,0.291,0,0,0,.221-0.2c0.32-.79.646-1.58,0.978-2.36a0.312,0.312,0,0,0-.013-0.33c-1.2-1.99-2.392-3.97-3.578-5.96a3,3,0,0,1,.431-3.82c1.167-1.2,2.354-2.37,3.553-3.54a2.971,2.971,0,0,1,3.638-.41c2.011,1.19,4.015,2.4,6.017,3.61a0.368,0.368,0,0,0,.4.02c0.766-.33,1.539-0.65,2.314-0.97a0.3,0.3,0,0,0,.214-0.23q0.838-3.36,1.689-6.72a3,3,0,0,1,2.579-2.39,0.227,0.227,0,0,0,.075-0.03h5.609a0.231,0.231,0,0,0,.074.03,2.98,2.98,0,0,1,2.573,2.37c0.571,2.24,1.132,4.49,1.689,6.73a0.327,0.327,0,0,0,.225.25c0.787,0.32,1.573.65,2.354,0.98a0.321,0.321,0,0,0,.315-0.02q3.014-1.815,6.034-3.62a2.977,2.977,0,0,1,3.67.41q1.8,1.74,3.553,3.54a2.989,2.989,0,0,1,.421,3.81c-1.188,2-2.387,3.98-3.583,5.97a0.251,0.251,0,0,0-.031.27c0.347,0.8.683,1.6,1.015,2.41a0.292,0.292,0,0,0,.226.19l6.8,1.71a3.02,3.02,0,0,1,2.342,2.94c0.01,1.67.015,3.34-.008,5.02a4.664,4.664,0,0,1-.222,1.08,2.764,2.764,0,0,1-.228.5,0.105,0.105,0,0,0,.049.03,3.015,3.015,0,0,1,2.383,2.38c0.019,0.08.041,0.16,0.061,0.23v25.11a0.428,0.428,0,0,0-.037.09,3.021,3.021,0,0,1-2.1,2.45c-0.176.06-.361,0.09-0.543,0.14H963.166Zm10.965-30.47h11.552a0.871,0.871,0,0,0,.162-0.01c0.758-.19,1.516-0.38,2.273-0.58a1.009,1.009,0,0,0,.817-1.06q0-2.4,0-4.8a1.031,1.031,0,0,0-.867-1.1l-6.825-1.71a2.09,2.09,0,0,1-1.53-1.37c-0.316-.8-0.644-1.59-0.993-2.37a2.067,2.067,0,0,1,.1-2.03l3.651-6.09a1.018,1.018,0,0,0-.161-1.35c-1.144-1.14-2.289-2.29-3.436-3.43a1,1,0,0,0-1.3-.15q-3.045,1.815-6.089,3.65a2.123,2.123,0,0,1-2.071.11c-0.775-.35-1.562-0.68-2.353-0.99a2.089,2.089,0,0,1-1.378-1.52c-0.564-2.28-1.137-4.55-1.705-6.83a1.045,1.045,0,0,0-1.122-.87H958.08a1.013,1.013,0,0,0-1.072.83c-0.12.46-.233,0.93-0.35,1.39q-0.69,2.76-1.379,5.5a2.051,2.051,0,0,1-1.265,1.46c-0.861.35-1.719,0.72-2.578,1.07a2.025,2.025,0,0,1-1.924-.13q-3.034-1.83-6.071-3.64a1.023,1.023,0,0,0-1.395.17l-3.389,3.39a1.007,1.007,0,0,0-.157,1.34q1.825,3.045,3.651,6.09a2.026,2.026,0,0,1,.149,1.91c-0.362.87-.73,1.74-1.095,2.61a2.058,2.058,0,0,1-1.447,1.25q-3.435.855-6.871,1.72a1.016,1.016,0,0,0-.855,1.11v4.71a1.035,1.035,0,0,0,.91,1.15q3.387,0.855,6.772,1.7a2.109,2.109,0,0,1,1.549,1.4c0.3,0.78.626,1.55,0.971,2.32a2.092,2.092,0,0,1-.1,2.08q-1.832,3.045-3.65,6.09a1,1,0,0,0,.154,1.3c1.153,1.15,2.307,2.31,3.464,3.46a1.006,1.006,0,0,0,1.282.15c0.407-.24.812-0.48,1.218-0.73q2.471-1.47,4.943-2.96a2.01,2.01,0,0,1,1.9-.11c0.844,0.36,1.69.71,2.54,1.06a2.054,2.054,0,0,1,1.293,1.48q0.853,3.42,1.716,6.84a1.029,1.029,0,0,0,1.11.87h2.376v-0.3q0-10.485,0-20.96a3.049,3.049,0,0,1,3.12-3.12h8.149a0.238,0.238,0,0,0,.283-0.19,11.811,11.811,0,0,0,.4-6.24,11.963,11.963,0,0,0-5.979-8.26,13.043,13.043,0,0,0-3.08-1.23,0.973,0.973,0,0,1-.707-1.22,1,1,0,0,1,1.25-.72,14.212,14.212,0,0,1,10.475,16.74C974.319,6534.78,974.223,6535.14,974.131,6535.53Zm-11.615,6.1v21.26a1.02,1.02,0,0,0,1.084,1.08h26.275a1.024,1.024,0,0,0,1.093-1.09v-21.25H962.516Zm28.452-2.04v-0.9a1.029,1.029,0,0,0-1.135-1.13H963.479a0.948,0.948,0,0,0-.911.74,9.708,9.708,0,0,0-.013,1.29h28.413Zm-38.626-8.1a8.14,8.14,0,0,1,15.448-3.58,8.046,8.046,0,0,1,.781,4.38,1.027,1.027,0,0,1-1.1.88,1.006,1.006,0,0,1-.915-1.09,6.092,6.092,0,0,0-.085-1.76,5.9,5.9,0,0,0-2.892-4.09,6.088,6.088,0,1,0-5.929,10.63,1.059,1.059,0,0,1,.574,1.39,1.009,1.009,0,0,1-1.39.48,8.089,8.089,0,0,1-4.421-6.31C952.371,6532.11,952.364,6531.8,952.342,6531.49Zm10.173-.03a2.032,2.032,0,1,1-2.025-2.02A2.046,2.046,0,0,1,962.515,6531.46Zm-2.79-13.08a1.037,1.037,0,0,1-.87,1.02c-0.732.15-1.463,0.31-2.19,0.49a1.023,1.023,0,0,1-1.3-1.02,0.976,0.976,0,0,1,.708-0.92c0.822-.21,1.649-0.41,2.484-0.56A0.988,0.988,0,0,1,959.725,6518.38Zm-8.585,2.73a1.058,1.058,0,0,1,.715.3c0.484,0.48.971,0.96,1.448,1.45a1.013,1.013,0,0,1-1.426,1.44q-0.743-.72-1.463-1.47a0.941,0.941,0,0,1-.2-1.1A1.006,1.006,0,0,1,951.14,6521.11Zm1.47,17.24a0.991,0.991,0,0,1,.9.62,0.93,0.93,0,0,1-.178,1.07c-0.489.52-.992,1.02-1.5,1.51a1.012,1.012,0,0,1-1.429-1.43c0.491-.51,1-1.01,1.5-1.51A1.017,1.017,0,0,1,952.61,6538.35Zm-5.3-11.96a1.015,1.015,0,0,1,1.374-1.02c0.64,0.25,1.274.52,1.9,0.8a1,1,0,0,1,.542,1.33,1.016,1.016,0,0,1-1.325.54q-0.959-.39-1.9-0.81A0.938,0.938,0,0,1,947.31,6526.39Zm2.745,8.25a1.039,1.039,0,0,1,1.06.81,0.986,0.986,0,0,1-.552,1.11c-0.669.29-1.343,0.56-2.026,0.82a0.986,0.986,0,0,1-1.229-.56,0.961,0.961,0,0,1,.423-1.27c0.705-.33,1.435-0.59,2.156-0.88A0.43,0.43,0,0,1,950.055,6534.64Zm-1.766-4.19h1a1.015,1.015,0,1,1-.01,2.03q-0.984.015-1.968,0a1.014,1.014,0,0,1-1.048-1.01,1.026,1.026,0,0,1,1.057-1.02h0.974Zm7.2,14.18a1.028,1.028,0,0,1-1.107-1.37c0.253-.63.52-1.26,0.795-1.89a1.014,1.014,0,1,1,1.859.81c-0.251.61-.507,1.21-0.768,1.81A0.954,0.954,0,0,1,955.487,6544.63Zm14.141,4.7c0.475-.47.929-0.93,1.383-1.38,0.651-.65,1.3-1.31,1.954-1.95a0.987,0.987,0,0,1,1.14-.22,1,1,0,0,1,.6.97,0.987,0.987,0,0,1-.3.67c-1.354,1.35-2.706,2.71-4.065,4.06a0.994,0.994,0,0,1-1.438,0c-0.68-.67-1.355-1.35-2.025-2.03a1,1,0,0,1,0-1.43,1.014,1.014,0,0,1,1.44,0C968.755,6548.45,969.181,6548.88,969.628,6549.33Zm0,8.13c0.417-.42.814-0.82,1.211-1.21,0.708-.71,1.414-1.42,2.126-2.13a1.016,1.016,0,0,1,1.743.75,0.984,0.984,0,0,1-.3.67q-2.029,2.04-4.064,4.06a1,1,0,0,1-1.439,0c-0.68-.67-1.354-1.34-2.024-2.02a1.013,1.013,0,1,1,1.436-1.43C968.755,6556.57,969.18,6557.01,969.628,6557.46Zm12.194-9.74h4.062a0.967,0.967,0,0,1,.884.52,0.946,0.946,0,0,1-.026,1.03,0.988,0.988,0,0,1-.908.48h-5.87c-0.691,0-1.382-.02-2.071,0a1.027,1.027,0,1,1-.011-2.04C979.2,6547.73,980.509,6547.72,981.822,6547.72Zm-2.022,8.12h1.97a1.027,1.027,0,0,1,1.068,1.01,1.014,1.014,0,0,1-1.059,1.02q-1.989.015-3.979,0a1.015,1.015,0,0,1-1.058-1.02,1.028,1.028,0,0,1,1.069-1.01H979.8Z" transform="translate(-930 -6501)"/>
</svg>
