<svg xmlns="http://www.w3.org/2000/svg" width="62" height="62" viewBox="0 0 62 62">
  <defs>
    <style>
      .cls-1 {
        fill: #fff;
        fill-rule: evenodd;
      }
    </style>
  </defs>
  <path id="icon-2" class="cls-1" d="M769.876,6507c0.142,0.08.282,0.17,0.429,0.24a2.752,2.752,0,0,1,1.747,2.64c0.007,3.49.011,6.97,0,10.46a2.74,2.74,0,0,1-2.754,2.77c-1.911.03-3.823,0.01-5.734,0.02H763c0.32,0.6.572,1.16,0.9,1.67a7.549,7.549,0,0,0,8.792,3.15,7.067,7.067,0,0,1,3.593-.17c0.492,0.1.993,0.15,1.6,0.23-0.275-.4-0.5-0.72-0.722-1.04-0.912-1.28-.8-1.25-0.109-2.42a7.735,7.735,0,0,0-1.044-9.35,1.909,1.909,0,0,1-.568-1.39c0.008-.46,0-0.92,0-1.47,0.259,0.16.46,0.26,0.64,0.39a9.651,9.651,0,0,1,2.844,12.35,1.022,1.022,0,0,0,.1,1.24c0.55,0.72,1.056,1.47,1.584,2.2a1.1,1.1,0,0,1,.156,1.3,1.057,1.057,0,0,1-1.2.4c-1.559-.23-3.113-0.48-4.675-0.68a2.588,2.588,0,0,0-1.167.14,9.643,9.643,0,0,1-8.546-.96,9.675,9.675,0,0,1,3.364-17.66c0.444-.08.9-0.11,1.34-0.2a0.769,0.769,0,0,0,.253-0.24,0.108,0.108,0,0,0,0-.04c0.107-1.36-.173-1.66-1.535-1.66H753.215a1.067,1.067,0,0,0-1.253,1.28c0,3.25,0,6.51,0,9.76a1.048,1.048,0,0,0,1.224,1.27c1.007,0.02,2.014.01,3.022,0.01a2.455,2.455,0,0,1,.271.01,0.92,0.92,0,0,1,.874,1.42c-0.132.33-.281,0.66-0.421,0.98a0.647,0.647,0,0,0,.09.08l1.352-1.07c0.161,0.5.345,0.98,0.455,1.47a1.11,1.11,0,0,1-.141.62,1.023,1.023,0,0,1-.318.38c-1.314,1.07-2.627,2.13-3.953,3.18a0.863,0.863,0,0,1-1.2,0,0.926,0.926,0,0,1-.207-1.23c0.536-1.1,1.1-2.19,1.645-3.29,0.1-.19.178-0.39,0.285-0.63-0.16-.01-0.27-0.03-0.379-0.03-0.5-.01-1.008.01-1.511-0.01a2.821,2.821,0,0,1-2.987-3.01c-0.035-1.52,0-3.05,0-4.57,0-1.61-.027-3.23-0.022-4.84a7.089,7.089,0,0,1,.118-1.35,2.915,2.915,0,0,1,1.792-2.18c0.115-.05.225-0.11,0.338-0.17h17.593Zm0.289,9.64q0-1.665,0-3.33c0-.52-0.017-0.54-0.551-0.49a7.794,7.794,0,0,0-7,7.88c0.009,0.45.091,0.54,0.554,0.54,1.9,0,3.8,0,5.7-.01,1.028-.01,1.295-0.29,1.3-1.33C770.169,6518.81,770.165,6517.73,770.165,6516.64ZM735,6523.66l0.327-1.02a6.623,6.623,0,1,1-.176,3.3,3.211,3.211,0,0,0-.151-0.42v-1.86Zm41.109,36.69c0-1.92,0-3.83,0-5.74a4.59,4.59,0,0,1,.083-0.96,2.6,2.6,0,0,1,2.484-2.08c1.583-.13,3.169-0.22,4.753-0.33,0.155-.01.31-0.02,0.465-0.02a0.494,0.494,0,0,0,.544-0.55q0.457-6.69.937-13.37a5,5,0,0,1,3.969-4.78,4.9,4.9,0,0,1,5.927,4.78c-0.025,1.77-.189,3.55-0.3,5.33-0.147,2.29-.29,4.59-0.47,6.88-0.109,1.39-.216,2.78-0.451,4.15a2.564,2.564,0,0,1-2.56,2.32c-2.056.2-4.117,0.35-6.177,0.52-1.132.09-2.265,0.18-3.4,0.26a0.448,0.448,0,0,0-.491.55c0.052,2.98.078,5.96,0.108,8.95a2.562,2.562,0,0,1-2.255,2.7,2.759,2.759,0,0,1-3.066-1.81,2.966,2.966,0,0,1-.129-0.84c-0.011-1.99-.006-3.98-0.006-5.96h0.033Zm-28.506-9.19c1.1,0.08,2.152.16,3.207,0.24,0.837,0.06,1.675.1,2.512,0.16a2.576,2.576,0,0,1,2.523,2.47c0.085,1.42.054,2.84,0.06,4.26,0.012,2.65.028,5.29,0.017,7.94a2.741,2.741,0,0,1-3.9,2.52,2.28,2.28,0,0,1-1.518-2.11c-0.037-1.6.02-3.2,0.044-4.8,0.023-1.51.054-3.02,0.081-4.53,0-.14,0-0.28,0-0.47-0.546-.05-1.066-0.11-1.587-0.15q-3.937-.315-7.875-0.64a6.709,6.709,0,0,1-1-.11,2.729,2.729,0,0,1-2.31-2.52c-0.173-1.36-.266-2.72-0.365-4.09-0.259-3.59-.494-7.18-0.755-10.77a5.931,5.931,0,0,1,1.052-4.26,4.638,4.638,0,0,1,4.672-1.79,4.811,4.811,0,0,1,3.833,3.18,8.4,8.4,0,0,1,.4,2.63q0.384,5.31.758,10.62C747.5,6549.66,747.55,6550.38,747.6,6551.16Zm24.007,4.58H760.457v0.51q0,6.015,0,12.05c0,0.72.069,0.62-.649,0.63h-2.243v-18.55h-3.1v-3.23h23.085c0.007,0.13.02,0.27,0.021,0.41,0,0.73,0,1.47,0,2.21,0,0.63.069,0.56-.589,0.56-0.685.01-1.369,0-2.054,0.01-0.126,0-.253.01-0.426,0.01v18.07c0,0.52,0,.52-0.533.52H771.61v-13.2Zm18.721-37.77a6.645,6.645,0,1,1-6.625,6.64A6.657,6.657,0,0,1,790.331,6517.97Z" transform="translate(-735 -6507)"/>
</svg>
