<svg xmlns="http://www.w3.org/2000/svg" width="51" height="71" viewBox="0 0 51 71">
  <defs>
    <style>
      .cls-1 {
        fill: #fff;
        fill-rule: evenodd;
      }
    </style>
  </defs>
  <path id="icon-1" class="cls-1" d="M569.048,6500c0.323,0.08.651,0.15,0.966,0.25a4.994,4.994,0,0,1,3.421,4.74c0.01,2.46,0,4.93,0,7.39v0.44h6.879a1.541,1.541,0,0,1,1.7,1.7c0,1.42,0,2.84,0,4.29H553.065v-0.34c0-1.32,0-2.65,0-3.98a1.538,1.538,0,0,1,1.658-1.67h7.345v-0.41q0-3.615,0-7.24a4.984,4.984,0,0,1,4.259-5.12,0.337,0.337,0,0,0,.13-0.05h2.59Zm0.884,8.22a2.061,2.061,0,0,0-4.121,0A2.061,2.061,0,1,0,569.932,6508.22Zm3.8,62.78c-0.866-.88-1.7-1.73-2.532-2.58-1.462-1.5-2.9-3.02-4.388-4.49a32.6,32.6,0,0,0-7.656-5.4c-0.822-.45-1.648-0.88-2.522-1.35,3.534-2.28,7.034-4.54,10.564-6.82,1.918,3.47,3.817,6.91,5.739,10.38,0.5-1.01.959-1.97,1.444-2.92a88.061,88.061,0,0,1,9.1-14.55,38.087,38.087,0,0,1,7.532-7.52,17.8,17.8,0,0,1,3.846-2.17c0.065-.02.132-0.04,0.251-0.08-0.037.61-.068,1.18-0.107,1.75a53.1,53.1,0,0,0-.114,7.6,17.814,17.814,0,0,0,.42,2.67,10.514,10.514,0,0,0,.687,1.64c-0.192.11-.475,0.25-0.748,0.41a35.647,35.647,0,0,0-5.807,4.37,80.4,80.4,0,0,0-15.539,18.78C573.863,6570.79,573.818,6570.86,573.733,6571Zm-13.486-64.5v3.58h-8.738a3.414,3.414,0,0,0-2.332.79,2.482,2.482,0,0,0-.932,1.96c0,0.1,0,.21,0,0.32v47.29a2.885,2.885,0,0,0,3,3.07c2.817,0.03,5.635.01,8.453,0.02a1.168,1.168,0,0,1,.6.18,29.93,29.93,0,0,1,4.236,3.1c0.08,0.08.158,0.15,0.289,0.27a2.253,2.253,0,0,1-.311.03q-7.878.015-15.757,0a3.89,3.89,0,0,1-3.055-1.27,2.661,2.661,0,0,1-.693-1.75c0-.15,0-0.31,0-0.47V6510a3.292,3.292,0,0,1,3.345-3.48c2.146-.04,4.293-0.02,6.439-0.02h5.463Zm26.646,28.19v-0.45c0-6.98-.045-13.96.026-20.93a3.08,3.08,0,0,0-3.212-3.24q-3.867.015-7.735,0.01H575.53v-3.58h0.393c3.442,0,6.884.01,10.325,0a4.167,4.167,0,0,1,2.729.83,2.9,2.9,0,0,1,1.161,2.38q-0.008,10.965-.008,21.94a0.594,0.594,0,0,1-.136.41C588.986,6532.93,587.963,6533.79,586.893,6534.69Zm-6.352,32.43c0.307-.41.553-0.75,0.812-1.08,0.581-.73,1.177-1.46,1.748-2.2a0.726,0.726,0,0,1,.662-0.32,3.146,3.146,0,0,0,1.717-.45,2.507,2.507,0,0,0,1.4-2.42,1.886,1.886,0,0,1,.727-1.75c0.8-.65,1.539-1.37,2.306-2.07,0.05-.04.11-0.08,0.224-0.16v0.44c0,2.18-.058,4.37.017,6.55a3.292,3.292,0,0,1-3.12,3.4c-1.229.08-2.466,0.05-3.7,0.05C582.435,6567.12,581.538,6567.12,580.541,6567.12Zm1.013-30.27v1.35H553.942v-1.35h27.612Zm-27.621-2.75v-1.33H581.54v1.33H553.933Zm0,8.18v-1.34h27.609v1.34H553.932Zm9.8-16.69v1.33h-9.791v-1.33h9.791Zm0,3.17v1.34H553.94v-1.34h9.788Z" transform="translate(-545 -6500)"/>
</svg>
