<svg xmlns="http://www.w3.org/2000/svg" width="70" height="70" viewBox="0 0 70 70">
  <defs>
    <style>
      .cls-1 {
        fill: #fff;
        fill-rule: evenodd;
      }
    </style>
  </defs>
  <path id="icon-5" class="cls-1" d="M1336.73,6501a12.44,12.44,0,0,1,1.49.36,4.526,4.526,0,0,1,2.99,4.39,9.292,9.292,0,0,1-.56,2.16c-0.15.47-.37,0.92-0.58,1.44h10.01v6.77c-3.16-.72-5.73.19-7.41,2.98a5.879,5.879,0,0,0,.34,6.86,6.284,6.284,0,0,0,7.08,2.43v6.77h-9.57c0.11,0.21.18,0.36,0.26,0.51a7.613,7.613,0,0,1,1.01,2.25,4.692,4.692,0,0,1-9.16,2.02,4.552,4.552,0,0,1,.44-3.39c0.24-.44.5-0.87,0.79-1.38h-0.49q-4.35,0-8.68.01a0.369,0.369,0,0,1-.46-0.45c0.02-2.04.01-4.09,0.01-6.14,0-.48,0-0.48.45-0.38a6.38,6.38,0,1,0,1.53-12.58,11.312,11.312,0,0,0-1.63.19c-0.24.04-.35,0.01-0.35-0.26,0.01-1.54-.02-3.09.01-4.63a1.57,1.57,0,0,1,1.73-1.58h7.05c-0.11-.28-0.21-0.51-0.3-0.74-0.25-.69-0.54-1.37-0.72-2.08a4.13,4.13,0,0,1,1.04-3.93,4.414,4.414,0,0,1,2.89-1.51c0.12-.02.24-0.06,0.37-0.09h0.42Zm24.93,61.7h-9.81v-6.79a6.387,6.387,0,0,0,6.59-1.8,6.178,6.178,0,0,0,1.68-4.69,6.453,6.453,0,0,0-8.28-5.77c-0.01-.13-0.02-0.25-0.02-0.37q0-3-.01-6a0.339,0.339,0,0,1,.42-0.41c2.91,0.01,5.81.01,8.72,0.01h0.45c-0.11-.21-0.18-0.37-0.27-0.53a7.292,7.292,0,0,1-1-2.26,4.693,4.693,0,0,1,9.17-1.97,4.558,4.558,0,0,1-.57,3.61c-0.2.35-.4,0.7-0.65,1.12,0.19,0.01.32,0.03,0.45,0.03,2.9,0,5.79,0,8.69-.01,0.34,0,.46.08,0.46,0.44-0.02,2.07-.01,4.14-0.01,6.22,0,0.12-.01.24-0.02,0.38a6.286,6.286,0,0,0-7.25,2.73,5.821,5.821,0,0,0-.1,6.68,6.1,6.1,0,0,0,7.34,2.79c0.01,0.13.03,0.25,0.03,0.37v4.63a1.557,1.557,0,0,1-1.44,1.58c-0.21.02-.42,0.02-0.63,0.02h-7.31c0.2,0.35.36,0.65,0.54,0.94a4.973,4.973,0,0,1,.83,2.85,4.691,4.691,0,0,1-9.19,1.13,4.592,4.592,0,0,1,.47-3.69C1361.17,6563.55,1361.39,6563.16,1361.66,6562.7Zm-2.79-53.35c-0.71,3.11.16,5.62,2.81,7.32a5.869,5.869,0,0,0,6.7-.01c2.66-1.71,3.48-4.23,2.78-7.31h4.81a1.574,1.574,0,0,1,1.7,1.71v7.63c0.27-.15.48-0.27,0.68-0.39a6.4,6.4,0,0,1,2.32-.95,4.677,4.677,0,0,1,1.87,9.15,4.534,4.534,0,0,1-3.56-.44c-0.41-.24-0.82-0.48-1.31-0.76v0.47c0,2.98,0,5.97.01,8.95,0,0.34-.07.46-0.44,0.46-1.97-.02-3.94-0.01-5.91-0.01h-0.46a6.307,6.307,0,0,0-1.64-6.43,6.029,6.029,0,0,0-4.62-1.86,6.182,6.182,0,0,0-5.03,2.64,6.311,6.311,0,0,0-.95,5.62,2.35,2.35,0,0,1-.34.03q-3.045,0-6.08.01a0.323,0.323,0,0,1-.4-0.4q0.015-4.365.01-8.73v-0.48c-0.46.26-.84,0.49-1.23,0.7a4.5,4.5,0,0,1-5.15-.23,4.367,4.367,0,0,1-1.85-4.64,4.523,4.523,0,0,1,3.73-3.74,4.423,4.423,0,0,1,3.21.55c0.41,0.23.81,0.46,1.29,0.75v-0.48c0-2.9,0-5.81-.01-8.71a0.346,0.346,0,0,1,.43-0.43c2.08,0.02,4.17.01,6.25,0.01h0.38Zm-8.75,43.75v9.57h-7.07a6.339,6.339,0,0,0-2.01-6.74,6.056,6.056,0,0,0-4.47-1.52,6.162,6.162,0,0,0-4.91,2.75,5.86,5.86,0,0,0-.76,5.53h-4.96a1.58,1.58,0,0,1-1.69-1.69c-0.01-.92.02-1.84,0.03-2.77,0.01-1.51.03-3.01,0.04-4.52v-1.21c-0.43.25-.82,0.48-1.21,0.71a4.637,4.637,0,0,1-5.36-.38,4.439,4.439,0,0,1-1.58-4.78,4.52,4.52,0,0,1,3.52-3.43,5.04,5.04,0,0,1,3.3.54c0.39,0.16.78,0.34,1.23,0.53,0.01-.2.02-0.33,0.02-0.47,0-2.63.01-5.26-.01-7.89,0-.35.09-0.47,0.45-0.46,1.98,0.02,3.96.01,5.94,0.01h0.43a6.352,6.352,0,0,0,1.78,6.59,6.217,6.217,0,0,0,4.83,1.7,6.457,6.457,0,0,0,5.66-8.27c0.12-.01.23-0.02,0.34-0.02,2.03,0,4.06.01,6.08-.01,0.33,0,.38.12,0.38,0.41-0.01,2.91,0,5.82,0,8.74v0.45l1.19-.69a4.679,4.679,0,1,1,2.52,8.68,4.88,4.88,0,0,1-2.63-.73C1350.86,6553.53,1350.52,6553.33,1350.12,6553.1Z" transform="translate(-1316 -6501)"/>
</svg>
