<svg xmlns="http://www.w3.org/2000/svg" width="68" height="68" viewBox="0 0 68 68">
  <defs>
    <style>
      .cls-1 {
        fill: #fff;
        fill-rule: evenodd;
      }
    </style>
  </defs>
  <path id="icon-4" class="cls-1" d="M1134.97,6542.21c0.46,0.52,1.02,1.14,1.54,1.72,1.83-1.83,3.6-3.61,5.4-5.42a22.033,22.033,0,0,1-3.77-18.44,21.471,21.471,0,0,1,8.57-12.82,22.24,22.24,0,1,1-.24,35.84l-5.36,5.36c0.54,0.5,1.16,1.06,1.72,1.58l-21,20.97c-2.58-2.58-5.24-5.25-7.83-7.84Q1124.32,6552.84,1134.97,6542.21Zm37.71-17.26v11.07a16.858,16.858,0,0,0-25.58-21.96c-6.02,6.81-4.77,16.09-1.27,20.45,0-2.21-.02-4.35.02-6.49a1.16,1.16,0,0,1,.48-0.86,38.914,38.914,0,0,1,3.87-1.81,20.359,20.359,0,0,1,2.88-.66v1.05q0,7.14.02,14.28a1.04,1.04,0,0,0,.36.82,19.557,19.557,0,0,0,2.18.77v-16.38a6.527,6.527,0,0,1,.81.47c1.38,1.11,2.74,2.25,4.12,3.36a12.184,12.184,0,0,0,1.74,1.23,0.841,0.841,0,0,1,.56.88c-0.02,3.25-.01,6.51-0.01,9.76v0.89c0.66-.16,1.23-0.31,1.8-0.44a0.806,0.806,0,0,0,.73-0.96c-0.03-3.25-.02-6.51-0.01-9.77a1.009,1.009,0,0,1,.22-0.71c1.77-1.38,3.55-2.73,5.36-4.06A13.682,13.682,0,0,1,1172.68,6524.95Zm-7.53,1.37c2.08-1.21,4.17-2.41,6.25-3.64a0.77,0.77,0,0,0,.32-0.51,1.732,1.732,0,0,1,1.55-1.69,1.7,1.7,0,0,1,1.2,3.05,1.728,1.728,0,0,1-2.29-.21,0.932,0.932,0,0,1-.13-0.07c-1.82,1.06-3.67,2.13-5.52,3.2a3.366,3.366,0,0,0-1.7,1.53,1.545,1.545,0,0,1-1.88.65,1.573,1.573,0,0,1-1.15-1.55,0.965,0.965,0,0,0-.61-1.02c-1.84-1.05-3.67-2.13-5.49-3.19-1.14,1.39-2.46,1.32-3.37-.12-1.39.48-2.81,0.96-4.21,1.48a0.934,0.934,0,0,0-.27.59,1.773,1.773,0,0,1-1.92,1.47,1.715,1.715,0,0,1-1.48-1.9,1.66,1.66,0,0,1,2.61-1.2,1.122,1.122,0,0,0,1.21.12c0.88-.32,1.76-0.62,2.65-0.93a2.709,2.709,0,0,0,1.78-1.23,1.643,1.643,0,0,1,2.85.29,2.333,2.333,0,0,0,.76.83c1.77,1.07,3.57,2.1,5.35,3.15a0.88,0.88,0,0,0,1.06.07C1163.54,6525.02,1164.19,6525.28,1165.15,6526.32Zm-11.17-5.05a0.868,0.868,0,0,0-.87.92,0.885,0.885,0,0,0,1.77-.05A0.848,0.848,0,0,0,1153.98,6521.27Zm19.43-.01a0.857,0.857,0,0,0-.84.89,0.817,0.817,0,0,0,.87.9,0.827,0.827,0,0,0,.9-0.87A0.894,0.894,0,0,0,1173.41,6521.26Zm-26.38,3.29a0.891,0.891,0,1,0-1.78.06,0.818,0.818,0,0,0,.92.85A0.838,0.838,0,0,0,1147.03,6524.55Zm16.45,1.56a0.853,0.853,0,0,0-.9.89,0.835,0.835,0,0,0,.89.89,0.814,0.814,0,0,0,.88-0.88A0.837,0.837,0,0,0,1163.48,6526.11Z" transform="translate(-1114 -6503)"/>
</svg>
